<svg width="320" height="320" viewBox="0 0 320 320" fill="none" xmlns="http://www.w3.org/2000/svg">
<circle cx="160" cy="160" r="160" fill="#2E0347"/>
<mask id="mask0" mask-type="alpha" maskUnits="userSpaceOnUse" x="60" y="36" width="200" height="244">
<path d="M184 180.611V199H188C227.764 199 260 231.236 260 271V280H60V271C60 231.236 92.2355 199 132 199H136V180.611C118.763 172.422 106.372 155.687 104.305 135.881C98.4803 135.058 94 130.052 94 124V110C94 104.054 98.3246 99.1181 104 98.1659V92C104 61.0721 129.072 36 160 36C190.928 36 216 61.0721 216 92V98.1659C221.675 99.1181 226 104.054 226 110V124C226 130.052 221.52 135.058 215.695 135.881C213.628 155.687 201.237 172.422 184 180.611Z" fill="white"/>
</mask>
<g mask="url(#mask0)">
<path d="M184 180.611V199H188C227.764 199 260 231.236 260 271V280H60V271C60 231.236 92.2355 199 132 199H136V180.611C118.763 172.422 106.372 155.687 104.305 135.881C98.4803 135.058 94 130.052 94 124V110C94 104.054 98.3246 99.1181 104 98.1659V92C104 61.0721 129.072 36 160 36C190.928 36 216 61.0721 216 92V98.1659C221.675 99.1181 226 104.054 226 110V124C226 130.052 221.52 135.058 215.695 135.881C213.628 155.687 201.237 172.422 184 180.611Z" fill="#D0C6AC"/>
<path d="M292 36H28V280H292V36Z" fill="#EDB98A"/>
<path fill-rule="evenodd" clip-rule="evenodd" d="M216 115V138C216 168.928 190.928 194 160 194C129.072 194 104 168.928 104 138V115V130C104 160.928 129.072 186 160 186C190.928 186 216 160.928 216 130V115Z" fill="black" fill-opacity="0.1"/>
</g>
<mask id="mask1" mask-type="alpha" maskUnits="userSpaceOnUse" x="60" y="199" width="200" height="81">
<path fill-rule="evenodd" clip-rule="evenodd" d="M193.96 199.295C230.936 202.325 260 233.294 260 271.052V280H60V271.052C60 232.953 89.592 201.765 127.045 199.219C127.015 199.593 127 199.969 127 200.348C127 212.211 141.998 221.828 160.5 221.828C179.002 221.828 194 212.211 194 200.348C194 199.995 193.987 199.644 193.96 199.295Z" fill="white"/>
</mask>
<g mask="url(#mask1)">
<path fill-rule="evenodd" clip-rule="evenodd" d="M193.96 199.295C230.936 202.325 260 233.294 260 271.052V280H60V271.052C60 232.953 89.592 201.765 127.045 199.219C127.015 199.593 127 199.969 127 200.348C127 212.211 141.998 221.828 160.5 221.828C179.002 221.828 194 212.211 194 200.348C194 199.995 193.987 199.644 193.96 199.295Z" fill="#E6E6E6"/>
<path d="M292 170H28V280H292V170Z" fill="#262E33"/>
<g opacity="0.6">
<g opacity="0.6">
<path opacity="0.6" d="M160.5 228.761C182.39 228.761 200.135 216.712 200.135 201.848C200.135 186.984 182.39 174.934 160.5 174.934C138.61 174.934 120.865 186.984 120.865 201.848C120.865 216.712 138.61 228.761 160.5 228.761Z" fill="black" fill-opacity="0.16"/>
</g>
</g>
</g>
<path fill-rule="evenodd" clip-rule="evenodd" d="M128.785 199.122C90.5123 200.804 60 232.365 60 271.052H60V280H129.362C125.961 267.92 124 253.709 124 238.5C124 224.173 125.74 210.731 128.785 199.122ZM191.638 280H260V271.052C260 232.707 230.025 201.363 192.229 199.174C195.265 210.771 197 224.194 197 238.5C197 253.709 195.039 267.92 191.638 280Z" fill="#3A4C5A"/>
<path fill-rule="evenodd" clip-rule="evenodd" d="M209 256L218.556 248.833C219.999 247.751 221.988 247.768 223.412 248.876L230 254L209 256Z" fill="#E6E6E6"/>
<path fill-rule="evenodd" clip-rule="evenodd" d="M129 198C125 217.333 126.667 244.667 134 280H118L104 244L110 235L104 229L123 199C125.028 198.369 127.028 198.036 129 198Z" fill="#2F4351"/>
<path fill-rule="evenodd" clip-rule="evenodd" d="M191 198C195 217.333 193.333 244.667 186 280H202L216 244L210 235L216 229L197 199C194.972 198.369 192.972 198.036 191 198Z" fill="#2F4351"/>
<mask id="mask2" mask-type="alpha" maskUnits="userSpaceOnUse" x="141" y="147" width="38" height="19">
<path fill-rule="evenodd" clip-rule="evenodd" d="M141.118 149.128C142.176 158.62 150.226 166 160 166C169.804 166 177.874 158.574 178.892 149.04C178.974 148.273 178.117 147 177.043 147C162.149 147 150.738 147 143.087 147C142.007 147 141.012 148.178 141.118 149.128Z" fill="white"/>
</mask>
<g mask="url(#mask2)">
<path fill-rule="evenodd" clip-rule="evenodd" d="M141.118 149.128C142.176 158.62 150.226 166 160 166C169.804 166 177.874 158.574 178.892 149.04C178.974 148.273 178.117 147 177.043 147C162.149 147 150.738 147 143.087 147C142.007 147 141.012 148.178 141.118 149.128Z" fill="black" fill-opacity="0.7"/>
<path d="M171 136H150C147.239 136 145 138.239 145 141V147C145 149.761 147.239 152 150 152H171C173.761 152 176 149.761 176 147V141C176 138.239 173.761 136 171 136Z" fill="white"/>
<path d="M155 180C161.075 180 166 175.075 166 169C166 162.925 161.075 158 155 158C148.925 158 144 162.925 144 169C144 175.075 148.925 180 155 180Z" fill="#FF4F6D"/>
<path d="M165 180C171.075 180 176 175.075 176 169C176 162.925 171.075 158 165 158C158.925 158 154 162.925 154 169C154 175.075 158.925 180 165 180Z" fill="#FF4F6D"/>
</g>
<path fill-rule="evenodd" clip-rule="evenodd" d="M148 130C148 134.418 153.373 138 160 138C166.627 138 172 134.418 172 130" fill="black" fill-opacity="0.16"/>
<path d="M134 118C137.314 118 140 115.314 140 112C140 108.686 137.314 106 134 106C130.686 106 128 108.686 128 112C128 115.314 130.686 118 134 118Z" fill="black" fill-opacity="0.6"/>
<path d="M186 118C189.314 118 192 115.314 192 112C192 108.686 189.314 106 186 106C182.686 106 180 108.686 180 112C180 115.314 182.686 118 186 118Z" fill="black" fill-opacity="0.6"/>
<path d="M119.591 96.162C124.087 89.8356 133.603 86.6535 143.347 89.7958C144.399 90.1348 145.526 89.5574 145.865 88.5061C146.204 87.4548 145.626 86.3278 144.575 85.9888C133.167 82.3099 121.836 86.0989 116.331 93.8448C115.691 94.7452 115.902 95.9938 116.803 96.6336C117.703 97.2735 118.952 97.0623 119.591 96.162Z" fill="black" fill-opacity="0.6"/>
<path d="M200.377 103.158C196.463 97.6491 185.73 94.5601 176.485 96.8305C175.412 97.0939 174.329 96.4378 174.065 95.3651C173.802 94.2924 174.458 93.2093 175.531 92.9459C186.267 90.3093 198.696 93.8863 203.638 100.841C204.278 101.741 204.067 102.99 203.166 103.63C202.266 104.269 201.017 104.058 200.377 103.158Z" fill="black" fill-opacity="0.6"/>
<mask id="mask3" mask-type="alpha" maskUnits="userSpaceOnUse" x="28" y="0" width="264" height="280">
<path d="M292 0H28V280H292V0Z" fill="white"/>
</mask>
<g mask="url(#mask3)">
<mask id="mask4" mask-type="alpha" maskUnits="userSpaceOnUse" x="100" y="9" width="121" height="91">
<path fill-rule="evenodd" clip-rule="evenodd" d="M121.252 52.0221C121.375 51.9677 121.07 51.9468 120.336 51.9595C121.228 51.9577 121.533 51.9785 121.252 52.0221ZM113.117 36.3016C113.115 36.282 113.134 36.4527 113.117 36.3016V36.3016ZM220.765 70.7657C220.501 67.4487 220.033 64.1519 219.247 60.9111C218.622 58.3354 217.769 55.8775 216.76 53.42C216.151 51.9354 214.728 49.8961 214.56 48.2945C214.395 46.7169 215.627 44.9691 215.889 43.1323C216.144 41.3448 216.101 39.4652 215.734 37.6939C214.901 33.671 212.14 29.93 207.877 28.8814C206.925 28.6472 204.913 28.9358 204.241 28.3816C203.47 27.746 202.933 25.5807 202.235 24.7122C200.244 22.2362 197.14 20.6417 193.866 21.1976C191.455 21.6068 192.839 22.1053 191.032 20.6864C190.027 19.8976 189.276 18.6932 188.3 17.8392C186.833 16.5564 185.15 15.4582 183.408 14.557C178.851 12.1989 173.654 10.4849 168.564 9.64943C159.279 8.12524 149.369 9.45409 140.369 11.8688C135.89 13.0703 131.382 14.5952 127.222 16.6118C125.439 17.4764 124.409 18.1936 122.549 18.4201C119.621 18.7767 117.14 18.7589 114.366 20.001C105.83 23.8229 101.985 32.6898 105.307 41.175C105.975 42.8816 106.88 44.3802 108.127 45.7586C109.647 47.4393 110.198 47.1085 108.888 49.0412C106.929 51.9312 105.278 55.0129 103.933 58.2129C100.404 66.6146 99.8138 76.0772 100.044 85.0373C100.124 88.1741 100.259 91.3495 100.753 94.4562C100.967 95.8009 101.027 98.3293 102.035 99.3271C102.547 99.8331 103.276 100.115 104.004 99.9138C105.713 99.4402 105.125 98.1787 105.165 97.0076C105.365 91.124 105.095 85.9191 106.494 80.1065C107.528 75.8119 109.25 71.9115 111.483 68.0714C114.321 63.1872 117.386 58.8977 121.29 54.7155C122.207 53.732 122.408 53.3151 123.639 53.2438C124.571 53.19 125.934 53.8282 126.84 54.0492C128.838 54.5361 130.839 55.0174 132.873 55.3453C136.613 55.9482 140.317 55.9886 144.09 55.8704C151.516 55.6381 158.975 55.1172 166.175 53.2471C170.957 52.0054 175.197 49.7762 179.777 48.1422C179.859 48.1131 181.007 47.2951 181.208 47.3285C181.489 47.3748 183.185 49.1543 183.471 49.3784C185.697 51.1239 188.138 51.8567 190.541 53.2082C193.505 54.8746 190.635 52.49 192.269 54.5668C192.746 55.1716 192.99 56.2932 193.372 56.9783C194.588 59.1611 196.28 61.0795 198.303 62.6018C200.258 64.0725 203.196 64.7829 204.193 66.6972C204.962 68.1741 205.221 70.1813 205.841 71.7579C207.469 75.8932 209.618 79.7495 211.767 83.6443C213.499 86.7831 215.392 89.525 215.585 93.1118C215.652 94.3603 214.464 101.849 217.358 99.5717C217.786 99.2341 218.711 95.4157 218.901 94.7678C219.673 92.1351 219.947 89.3867 220.296 86.6817C220.99 81.3022 221.219 76.1837 220.765 70.7657Z" fill="white"/>
</mask>
<g mask="url(#mask4)">
<path fill-rule="evenodd" clip-rule="evenodd" d="M121.252 52.0221C121.375 51.9677 121.07 51.9468 120.336 51.9595C121.228 51.9577 121.533 51.9785 121.252 52.0221ZM113.117 36.3016C113.115 36.282 113.134 36.4527 113.117 36.3016V36.3016ZM220.765 70.7657C220.501 67.4487 220.033 64.1519 219.247 60.9111C218.622 58.3354 217.769 55.8775 216.76 53.42C216.151 51.9354 214.728 49.8961 214.56 48.2945C214.395 46.7169 215.627 44.9691 215.889 43.1323C216.144 41.3448 216.101 39.4652 215.734 37.6939C214.901 33.671 212.14 29.93 207.877 28.8814C206.925 28.6472 204.913 28.9358 204.241 28.3816C203.47 27.746 202.933 25.5807 202.235 24.7122C200.244 22.2362 197.14 20.6417 193.866 21.1976C191.455 21.6068 192.839 22.1053 191.032 20.6864C190.027 19.8976 189.276 18.6932 188.3 17.8392C186.833 16.5564 185.15 15.4582 183.408 14.557C178.851 12.1989 173.654 10.4849 168.564 9.64943C159.279 8.12524 149.369 9.45409 140.369 11.8688C135.89 13.0703 131.382 14.5952 127.222 16.6118C125.439 17.4764 124.409 18.1936 122.549 18.4201C119.621 18.7767 117.14 18.7589 114.366 20.001C105.83 23.8229 101.985 32.6898 105.307 41.175C105.975 42.8816 106.88 44.3802 108.127 45.7586C109.647 47.4393 110.198 47.1085 108.888 49.0412C106.929 51.9312 105.278 55.0129 103.933 58.2129C100.404 66.6146 99.8138 76.0772 100.044 85.0373C100.124 88.1741 100.259 91.3495 100.753 94.4562C100.967 95.8009 101.027 98.3293 102.035 99.3271C102.547 99.8331 103.276 100.115 104.004 99.9138C105.713 99.4402 105.125 98.1787 105.165 97.0076C105.365 91.124 105.095 85.9191 106.494 80.1065C107.528 75.8119 109.25 71.9115 111.483 68.0714C114.321 63.1872 117.386 58.8977 121.29 54.7155C122.207 53.732 122.408 53.3151 123.639 53.2438C124.571 53.19 125.934 53.8282 126.84 54.0492C128.838 54.5361 130.839 55.0174 132.873 55.3453C136.613 55.9482 140.317 55.9886 144.09 55.8704C151.516 55.6381 158.975 55.1172 166.175 53.2471C170.957 52.0054 175.197 49.7762 179.777 48.1422C179.859 48.1131 181.007 47.2951 181.208 47.3285C181.489 47.3748 183.185 49.1543 183.471 49.3784C185.697 51.1239 188.138 51.8567 190.541 53.2082C193.505 54.8746 190.635 52.49 192.269 54.5668C192.746 55.1716 192.99 56.2932 193.372 56.9783C194.588 59.1611 196.28 61.0795 198.303 62.6018C200.258 64.0725 203.196 64.7829 204.193 66.6972C204.962 68.1741 205.221 70.1813 205.841 71.7579C207.469 75.8932 209.618 79.7495 211.767 83.6443C213.499 86.7831 215.392 89.525 215.585 93.1118C215.652 94.3603 214.464 101.849 217.358 99.5717C217.786 99.2341 218.711 95.4157 218.901 94.7678C219.673 92.1351 219.947 89.3867 220.296 86.6817C220.99 81.3022 221.219 76.1837 220.765 70.7657Z" fill="#28354B"/>
<path d="M291 0H27V280H291V0Z" fill="#724133"/>
</g>
</g>
</svg>
