<svg width="191" height="54" viewBox="0 0 191 54" fill="none" xmlns="http://www.w3.org/2000/svg">
<g filter="url(#filter0_d)">
<path d="M32.0625 35.8438C32.0625 41.4271 30.6562 45.7917 27.8438 48.9375C25.0312 52.0625 21.1458 53.625 16.1875 53.625C13.125 53.625 10.4062 52.9062 8.03125 51.4688C5.65625 50.0312 3.82292 47.9688 2.53125 45.2812C1.23958 42.5938 0.59375 39.4479 0.59375 35.8438C0.59375 30.2604 1.98958 25.9167 4.78125 22.8125C7.57292 19.6875 11.4479 18.125 16.4062 18.125C21.1979 18.125 25 19.7188 27.8125 22.9062C30.6458 26.0938 32.0625 30.4062 32.0625 35.8438ZM5.96875 35.8438C5.96875 40.2188 6.84375 43.5521 8.59375 45.8438C10.3438 48.1354 12.9167 49.2812 16.3125 49.2812C19.7083 49.2812 22.2812 48.1458 24.0312 45.875C25.8021 43.5833 26.6875 40.2396 26.6875 35.8438C26.6875 31.4896 25.8021 28.1875 24.0312 25.9375C22.2812 23.6667 19.6875 22.5312 16.25 22.5312C12.8542 22.5312 10.2917 23.6458 8.5625 25.875C6.83333 28.1042 5.96875 31.4271 5.96875 35.8438ZM53.3413 27.3438H71.4663V51.0312C68.5288 51.9896 65.7579 52.6562 63.1538 53.0312C60.5704 53.4271 57.9246 53.625 55.2163 53.625C48.3204 53.625 43.0496 51.6042 39.4038 47.5625C35.7788 43.5 33.9663 37.6771 33.9663 30.0938C33.9663 22.7188 36.0704 16.9688 40.2788 12.8438C44.5079 8.71875 50.3621 6.65625 57.8413 6.65625C62.5288 6.65625 67.0496 7.59375 71.4038 9.46875L68.185 17.2188C64.8517 15.5521 61.3829 14.7188 57.7788 14.7188C53.5913 14.7188 50.2371 16.125 47.7163 18.9375C45.1954 21.75 43.935 25.5312 43.935 30.2812C43.935 35.2396 44.9454 39.0312 46.9663 41.6562C49.0079 44.2604 51.9663 45.5625 55.8413 45.5625C57.8621 45.5625 59.9142 45.3542 61.9975 44.9375V35.4062H53.3413V27.3438ZM92.3075 18.125C93.8283 18.125 95.1929 18.25 96.4013 18.5L95.6825 23.3125C94.2658 23 93.0158 22.8438 91.9325 22.8438C89.1617 22.8438 86.7867 23.9688 84.8075 26.2188C82.8492 28.4688 81.87 31.2708 81.87 34.625V53H76.6825V18.75H80.9638L81.5575 25.0938H81.8075C83.0783 22.8646 84.6096 21.1458 86.4013 19.9375C88.1929 18.7292 90.1617 18.125 92.3075 18.125ZM94.805 43.5312C94.805 40.1771 96.0967 37.5729 98.68 35.7188C101.263 33.8438 105.201 32.8229 110.493 32.6562L116.243 32.4688V30.3438C116.243 27.6562 115.638 25.6771 114.43 24.4062C113.222 23.1146 111.378 22.4688 108.899 22.4688C105.899 22.4688 102.701 23.3438 99.305 25.0938L97.68 21.125C99.2217 20.2708 101.024 19.5729 103.086 19.0312C105.17 18.4688 107.232 18.1875 109.274 18.1875C111.982 18.1875 114.19 18.6458 115.899 19.5625C117.628 20.4583 118.92 21.8958 119.774 23.875C120.878 22.0417 122.315 20.625 124.086 19.625C125.878 18.625 127.92 18.125 130.211 18.125C134.211 18.125 137.42 19.5208 139.836 22.3125C142.253 25.0833 143.461 28.7812 143.461 33.4062V36.75H121.555C121.722 44.9792 125.076 49.0938 131.618 49.0938C133.513 49.0938 135.274 48.9167 136.899 48.5625C138.545 48.1875 140.243 47.5938 141.993 46.7812V51.4062C140.201 52.1979 138.524 52.7604 136.961 53.0938C135.42 53.4479 133.597 53.625 131.493 53.625C125.472 53.625 121.159 51.1979 118.555 46.3438C116.868 48.9896 114.993 50.8646 112.93 51.9688C110.888 53.0729 108.472 53.625 105.68 53.625C102.284 53.625 99.6175 52.7396 97.68 50.9688C95.7633 49.1979 94.805 46.7188 94.805 43.5312ZM100.243 43.5938C100.243 45.5729 100.795 47.0312 101.899 47.9688C103.024 48.8854 104.503 49.3438 106.336 49.3438C109.357 49.3438 111.743 48.4688 113.493 46.7188C115.243 44.9479 116.118 42.4583 116.118 39.25V36.1562L111.18 36.375C107.305 36.5417 104.513 37.1979 102.805 38.3438C101.097 39.4688 100.243 41.2188 100.243 43.5938ZM130.149 22.4688C127.628 22.4688 125.638 23.3333 124.18 25.0625C122.743 26.7917 121.909 29.3021 121.68 32.5938H137.899C137.899 29.3438 137.232 26.8438 135.899 25.0938C134.565 23.3438 132.649 22.4688 130.149 22.4688ZM157.928 49.3438C158.844 49.3438 159.73 49.2812 160.584 49.1562C161.438 49.0104 162.115 48.8646 162.615 48.7188V52.6875C162.053 52.9583 161.219 53.1771 160.115 53.3438C159.032 53.5312 158.053 53.625 157.178 53.625C150.553 53.625 147.24 50.1354 147.24 43.1562V22.7812H142.334V20.2812L147.24 18.125L149.428 10.8125H152.428V18.75H162.365V22.7812H152.428V42.9375C152.428 45 152.917 46.5833 153.896 47.6875C154.875 48.7917 156.219 49.3438 157.928 49.3438ZM185.956 53H161.113V49.4688L179.8 22.7812H162.269V18.75H185.488V22.7812L167.05 48.9688H185.956V53Z" fill="white"/>
</g>
<defs>
<filter id="filter0_d" x="0.59375" y="0.65625" width="190.363" height="52.9688" filterUnits="userSpaceOnUse" color-interpolation-filters="sRGB">
<feFlood flood-opacity="0" result="BackgroundImageFix"/>
<feColorMatrix in="SourceAlpha" type="matrix" values="0 0 0 0 0 0 0 0 0 0 0 0 0 0 0 0 0 0 127 0"/>
<feOffset dx="3" dy="-4"/>
<feGaussianBlur stdDeviation="1"/>
<feColorMatrix type="matrix" values="0 0 0 0 0 0 0 0 0 0 0 0 0 0 0 0 0 0 0.25 0"/>
<feBlend mode="normal" in2="BackgroundImageFix" result="effect1_dropShadow"/>
<feBlend mode="normal" in="SourceGraphic" in2="effect1_dropShadow" result="shape"/>
</filter>
</defs>
</svg>
