<svg width="208" height="77" viewBox="0 0 208 77" fill="none" xmlns="http://www.w3.org/2000/svg">
<g filter="url(#filter0_d)">
<path d="M24.2969 63.1328C24.2969 67.3203 23.2422 70.5938 21.1328 72.9531C19.0234 75.2969 16.1094 76.4688 12.3906 76.4688C10.0938 76.4688 8.05469 75.9297 6.27344 74.8516C4.49219 73.7734 3.11719 72.2266 2.14844 70.2109C1.17969 68.1953 0.695312 65.8359 0.695312 63.1328C0.695312 58.9453 1.74219 55.6875 3.83594 53.3594C5.92969 51.0156 8.83594 49.8438 12.5547 49.8438C16.1484 49.8438 19 51.0391 21.1094 53.4297C23.2344 55.8203 24.2969 59.0547 24.2969 63.1328ZM4.72656 63.1328C4.72656 66.4141 5.38281 68.9141 6.69531 70.6328C8.00781 72.3516 9.9375 73.2109 12.4844 73.2109C15.0312 73.2109 16.9609 72.3594 18.2734 70.6562C19.6016 68.9375 20.2656 66.4297 20.2656 63.1328C20.2656 59.8672 19.6016 57.3906 18.2734 55.7031C16.9609 54 15.0156 53.1484 12.4375 53.1484C9.89062 53.1484 7.96875 53.9844 6.67188 55.6562C5.375 57.3281 4.72656 59.8203 4.72656 63.1328ZM56.6162 37.5156H83.8037V73.0469C79.3975 74.4844 75.2412 75.4844 71.335 76.0469C67.46 76.6406 63.4912 76.9375 59.4287 76.9375C49.085 76.9375 41.1787 73.9062 35.71 67.8438C30.2725 61.75 27.5537 53.0156 27.5537 41.6406C27.5537 30.5781 30.71 21.9531 37.0225 15.7656C43.3662 9.57812 52.1475 6.48438 63.3662 6.48438C70.3975 6.48438 77.1787 7.89062 83.71 10.7031L78.8819 22.3281C73.8819 19.8281 68.6787 18.5781 63.2725 18.5781C56.9912 18.5781 51.96 20.6875 48.1787 24.9062C44.3975 29.125 42.5069 34.7969 42.5069 41.9219C42.5069 49.3594 44.0225 55.0469 47.0537 58.9844C50.1162 62.8906 54.5537 64.8438 60.3662 64.8438C63.3975 64.8438 66.4756 64.5312 69.6006 63.9062V49.6094H56.6162V37.5156ZM104.023 41.125C105.544 41.125 106.909 41.25 108.117 41.5L107.398 46.3125C105.981 46 104.731 45.8438 103.648 45.8438C100.877 45.8438 98.5023 46.9688 96.5231 49.2188C94.5648 51.4688 93.5856 54.2708 93.5856 57.625V76H88.3981V41.75H92.6794L93.2731 48.0938H93.5231C94.794 45.8646 96.3252 44.1458 98.1169 42.9375C99.9085 41.7292 101.877 41.125 104.023 41.125ZM108.121 66.5312C108.121 63.1771 109.412 60.5729 111.996 58.7188C114.579 56.8438 118.516 55.8229 123.808 55.6562L129.558 55.4688V53.3438C129.558 50.6562 128.954 48.6771 127.746 47.4062C126.537 46.1146 124.694 45.4688 122.214 45.4688C119.214 45.4688 116.016 46.3438 112.621 48.0938L110.996 44.125C112.537 43.2708 114.339 42.5729 116.402 42.0312C118.485 41.4688 120.548 41.1875 122.589 41.1875C125.298 41.1875 127.506 41.6458 129.214 42.5625C130.944 43.4583 132.235 44.8958 133.089 46.875C134.194 45.0417 135.631 43.625 137.402 42.625C139.194 41.625 141.235 41.125 143.527 41.125C147.527 41.125 150.735 42.5208 153.152 45.3125C155.569 48.0833 156.777 51.7812 156.777 56.4062V59.75H134.871C135.037 67.9792 138.391 72.0938 144.933 72.0938C146.829 72.0938 148.589 71.9167 150.214 71.5625C151.86 71.1875 153.558 70.5938 155.308 69.7812V74.4062C153.516 75.1979 151.839 75.7604 150.277 76.0938C148.735 76.4479 146.912 76.625 144.808 76.625C138.787 76.625 134.475 74.1979 131.871 69.3438C130.183 71.9896 128.308 73.8646 126.246 74.9688C124.204 76.0729 121.787 76.625 118.996 76.625C115.6 76.625 112.933 75.7396 110.996 73.9688C109.079 72.1979 108.121 69.7188 108.121 66.5312ZM113.558 66.5938C113.558 68.5729 114.11 70.0312 115.214 70.9688C116.339 71.8854 117.819 72.3438 119.652 72.3438C122.673 72.3438 125.058 71.4688 126.808 69.7188C128.558 67.9479 129.433 65.4583 129.433 62.25V59.1562L124.496 59.375C120.621 59.5417 117.829 60.1979 116.121 61.3438C114.412 62.4688 113.558 64.2188 113.558 66.5938ZM143.464 45.4688C140.944 45.4688 138.954 46.3333 137.496 48.0625C136.058 49.7917 135.225 52.3021 134.996 55.5938H151.214C151.214 52.3438 150.548 49.8438 149.214 48.0938C147.881 46.3438 145.964 45.4688 143.464 45.4688ZM172.843 72.3438C173.76 72.3438 174.645 72.2812 175.499 72.1562C176.354 72.0104 177.031 71.8646 177.531 71.7188V75.6875C176.968 75.9583 176.135 76.1771 175.031 76.3438C173.947 76.5312 172.968 76.625 172.093 76.625C165.468 76.625 162.156 73.1354 162.156 66.1562V45.7812H157.249V43.2812L162.156 41.125L164.343 33.8125H167.343V41.75H177.281V45.7812H167.343V65.9375C167.343 68 167.833 69.5833 168.812 70.6875C169.791 71.7917 171.135 72.3438 172.843 72.3438ZM202.472 76H177.628V72.4688L196.316 45.7812H178.784V41.75H202.003V45.7812L183.566 71.9688H202.472V76Z" fill="white"/>
</g>
<defs>
<filter id="filter0_d" x="0.695312" y="0.484375" width="206.777" height="76.4531" filterUnits="userSpaceOnUse" color-interpolation-filters="sRGB">
<feFlood flood-opacity="0" result="BackgroundImageFix"/>
<feColorMatrix in="SourceAlpha" type="matrix" values="0 0 0 0 0 0 0 0 0 0 0 0 0 0 0 0 0 0 127 0"/>
<feOffset dx="3" dy="-4"/>
<feGaussianBlur stdDeviation="1"/>
<feColorMatrix type="matrix" values="0 0 0 0 0 0 0 0 0 0 0 0 0 0 0 0 0 0 0.25 0"/>
<feBlend mode="normal" in2="BackgroundImageFix" result="effect1_dropShadow"/>
<feBlend mode="normal" in="SourceGraphic" in2="effect1_dropShadow" result="shape"/>
</filter>
</defs>
</svg>
